<svg width="22" height="10" viewBox="0 0 22 10" fill="none" xmlns="http://www.w3.org/2000/svg">
<path fill-rule="evenodd" clip-rule="evenodd" d="M0.24856 0.209795C0.327151 0.143293 0.420514 0.0905313 0.523302 0.0545311C0.626089 0.0185318 0.736281 9.2149e-07 0.847567 9.16626e-07C0.958852 9.11762e-07 1.06904 0.0185318 1.17183 0.054531C1.27462 0.0905313 1.36798 0.143293 1.44657 0.209795L11.0002 8.27488L20.5539 0.209794C20.7127 0.0757046 20.9282 0.000374833 21.1529 0.000374823C21.3775 0.000374813 21.593 0.0757046 21.7519 0.209794C21.9108 0.343884 22 0.525748 22 0.71538C22 0.90501 21.9108 1.08687 21.7519 1.22096L11.5992 9.79021C11.5206 9.85671 11.4273 9.90947 11.3245 9.94547C11.2217 9.98147 11.1115 10 11.0002 10C10.8889 10 10.7787 9.98147 10.676 9.94547C10.5732 9.90947 10.4798 9.85671 10.4012 9.79021L0.24856 1.22097C0.16977 1.15463 0.107259 1.07583 0.0646065 0.989072C0.0219545 0.902315 -4.01738e-07 0.80931 -4.05844e-07 0.715381C-4.09949e-07 0.621451 0.0219545 0.528445 0.0646065 0.441689C0.107259 0.354932 0.16977 0.276129 0.24856 0.209795Z" fill="#3E3E3E"/>
</svg>
